<svg width="46" height="45" viewBox="0 0 46 45" fill="none" xmlns="http://www.w3.org/2000/svg">
<g clip-path="url(#clip0_179_3103)">
<path d="M24.9781 3.1874L4.2743 0.0414311C3.80182 -0.0351054 3.3184 -0.00914833 2.85683 0.117542C2.39526 0.244233 1.96633 0.468695 1.59912 0.775708C1.23604 1.0891 0.944062 1.47641 0.742723 1.91174C0.541383 2.34707 0.435325 2.82037 0.431641 3.29999L0.431641 42.9934C0.433147 43.4925 0.632102 43.9708 0.985057 44.3238C1.33801 44.6767 1.81629 44.8757 2.31544 44.8772H8.43432V34.9865C8.43325 34.5532 8.51779 34.124 8.68309 33.7235C8.84839 33.3231 9.09119 32.9592 9.39755 32.6528C9.7039 32.3465 10.0678 32.1037 10.4683 31.9384C10.8687 31.773 11.2979 31.6885 11.7312 31.6896H16.4411C16.8743 31.6885 17.3035 31.773 17.704 31.9384C18.1045 32.1037 18.4684 32.3465 18.7747 32.6528C19.0811 32.9592 19.3239 33.3231 19.4892 33.7235C19.6545 34.124 19.739 34.5532 19.7379 34.9865V44.8772H27.7439V6.44677C27.7447 5.66311 27.4666 4.90474 26.9592 4.30751C26.4518 3.71027 25.7484 3.3132 24.9749 3.1874H24.9781ZM10.7929 27.4512H7.96684C7.59207 27.4512 7.23266 27.3023 6.96766 27.0373C6.70266 26.7723 6.55379 26.4129 6.55379 26.0381C6.55379 25.6633 6.70266 25.3039 6.96766 25.0389C7.23266 24.7739 7.59207 24.625 7.96684 24.625H10.7929C11.1677 24.625 11.5271 24.7739 11.7921 25.0389C12.0571 25.3039 12.206 25.6633 12.206 26.0381C12.206 26.4129 12.0571 26.7723 11.7921 27.0373C11.5271 27.3023 11.1677 27.4512 10.7929 27.4512ZM10.7929 21.7997H7.96684C7.59207 21.7997 7.23266 21.6508 6.96766 21.3858C6.70266 21.1208 6.55379 20.7614 6.55379 20.3866C6.55379 20.0118 6.70266 19.6524 6.96766 19.3874C7.23266 19.1224 7.59207 18.9735 7.96684 18.9735H10.7929C11.1677 18.9735 11.5271 19.1224 11.7921 19.3874C12.0571 19.6524 12.206 20.0118 12.206 20.3866C12.206 20.7614 12.0571 21.1208 11.7921 21.3858C11.5271 21.6508 11.1677 21.7997 10.7929 21.7997ZM10.7929 16.1482H7.96684C7.59207 16.1482 7.23266 15.9993 6.96766 15.7343C6.70266 15.4693 6.55379 15.1099 6.55379 14.7351C6.55379 14.3604 6.70266 14.0009 6.96766 13.7359C7.23266 13.4709 7.59207 13.3221 7.96684 13.3221H10.7929C10.9785 13.3221 11.1623 13.3586 11.3337 13.4296C11.5051 13.5006 11.6609 13.6047 11.7921 13.7359C11.9233 13.8672 12.0274 14.0229 12.0984 14.1944C12.1695 14.3658 12.206 14.5496 12.206 14.7351C12.206 14.9207 12.1695 15.1044 12.0984 15.2759C12.0274 15.4473 11.9233 15.6031 11.7921 15.7343C11.6609 15.8655 11.5051 15.9696 11.3337 16.0406C11.1623 16.1117 10.9785 16.1482 10.7929 16.1482ZM10.7929 10.4967H7.96684C7.59207 10.4967 7.23266 10.3478 6.96766 10.0828C6.70266 9.81784 6.55379 9.45842 6.55379 9.08364C6.55379 8.70887 6.70266 8.34945 6.96766 8.08445C7.23266 7.81945 7.59207 7.67057 7.96684 7.67057H10.7929C11.1677 7.67057 11.5271 7.81945 11.7921 8.08445C12.0571 8.34945 12.206 8.70887 12.206 9.08364C12.206 9.45842 12.0571 9.81784 11.7921 10.0828C11.5271 10.3478 11.1677 10.4967 10.7929 10.4967ZM20.2119 27.4512H17.3858C17.0111 27.4512 16.6517 27.3023 16.3867 27.0373C16.1217 26.7723 15.9728 26.4129 15.9728 26.0381C15.9728 25.6633 16.1217 25.3039 16.3867 25.0389C16.6517 24.7739 17.0111 24.625 17.3858 24.625H20.2119C20.5867 24.625 20.9461 24.7739 21.2111 25.0389C21.4761 25.3039 21.625 25.6633 21.625 26.0381C21.625 26.4129 21.4761 26.7723 21.2111 27.0373C20.9461 27.3023 20.5867 27.4512 20.2119 27.4512ZM20.2119 21.7997H17.3858C17.0111 21.7997 16.6517 21.6508 16.3867 21.3858C16.1217 21.1208 15.9728 20.7614 15.9728 20.3866C15.9728 20.0118 16.1217 19.6524 16.3867 19.3874C16.6517 19.1224 17.0111 18.9735 17.3858 18.9735H20.2119C20.5867 18.9735 20.9461 19.1224 21.2111 19.3874C21.4761 19.6524 21.625 20.0118 21.625 20.3866C21.625 20.7614 21.4761 21.1208 21.2111 21.3858C20.9461 21.6508 20.5867 21.7997 20.2119 21.7997ZM20.2119 16.1482H17.3858C17.2003 16.1482 17.0165 16.1117 16.8451 16.0406C16.6736 15.9696 16.5179 15.8655 16.3867 15.7343C16.2554 15.6031 16.1514 15.4473 16.0803 15.2759C16.0093 15.1044 15.9728 14.9207 15.9728 14.7351C15.9728 14.5496 16.0093 14.3658 16.0803 14.1944C16.1514 14.0229 16.2554 13.8672 16.3867 13.7359C16.5179 13.6047 16.6736 13.5006 16.8451 13.4296C17.0165 13.3586 17.2003 13.3221 17.3858 13.3221H20.2119C20.5867 13.3221 20.9461 13.4709 21.2111 13.7359C21.4761 14.0009 21.625 14.3604 21.625 14.7351C21.625 15.1099 21.4761 15.4693 21.2111 15.7343C20.9461 15.9993 20.5867 16.1482 20.2119 16.1482ZM20.2119 10.4967H17.3858C17.0111 10.4967 16.6517 10.3478 16.3867 10.0828C16.1217 9.81784 15.9728 9.45842 15.9728 9.08364C15.9728 8.70887 16.1217 8.34945 16.3867 8.08445C16.6517 7.81945 17.0111 7.67057 17.3858 7.67057H20.2119C20.5867 7.67057 20.9461 7.81945 21.2111 8.08445C21.4761 8.34945 21.625 8.70887 21.625 9.08364C21.625 9.45842 21.4761 9.81784 21.2111 10.0828C20.9461 10.3478 20.5867 10.4967 20.2119 10.4967Z" fill="#6710F7"/>
<path d="M43.0434 20.0897L29.6309 17.2806V44.8772H42.3467C43.2208 44.8763 44.0589 44.5287 44.677 43.9106C45.2951 43.2925 45.6427 42.4544 45.6436 41.5803V23.3107C45.6463 22.5568 45.3892 21.8249 44.9157 21.2383C44.4421 20.6516 43.781 20.246 43.0434 20.0897ZM38.5791 39.2257H35.7497C35.375 39.2257 35.0156 39.0769 34.7506 38.8119C34.4856 38.5468 34.3367 38.1874 34.3367 37.8127C34.3367 37.4379 34.4856 37.0785 34.7506 36.8135C35.0156 36.5485 35.375 36.3996 35.7497 36.3996H38.5758C38.9506 36.3996 39.31 36.5485 39.575 36.8135C39.84 37.0785 39.9889 37.4379 39.9889 37.8127C39.9889 38.1874 39.84 38.5468 39.575 38.8119C39.31 39.0769 38.9506 39.2257 38.5758 39.2257H38.5791ZM38.5791 33.5742H35.7497C35.375 33.5742 35.0156 33.4254 34.7506 33.1604C34.4856 32.8954 34.3367 32.5359 34.3367 32.1612C34.3367 31.7864 34.4856 31.427 34.7506 31.162C35.0156 30.897 35.375 30.7481 35.7497 30.7481H38.5758C38.9506 30.7481 39.31 30.897 39.575 31.162C39.84 31.427 39.9889 31.7864 39.9889 32.1612C39.9889 32.5359 39.84 32.8954 39.575 33.1604C39.31 33.4254 38.9506 33.5742 38.5758 33.5742H38.5791ZM38.5791 27.9228H35.7497C35.375 27.9228 35.0156 27.7739 34.7506 27.5089C34.4856 27.2439 34.3367 26.8845 34.3367 26.5097C34.3367 26.1349 34.4856 25.7755 34.7506 25.5105C35.0156 25.2455 35.375 25.0966 35.7497 25.0966H38.5758C38.9506 25.0966 39.31 25.2455 39.575 25.5105C39.84 25.7755 39.9889 26.1349 39.9889 26.5097C39.9889 26.8845 39.84 27.2439 39.575 27.5089C39.31 27.7739 38.9506 27.9228 38.5758 27.9228H38.5791Z" fill="#6710F7"/>
</g>
<defs>
<clipPath id="clip0_179_3103">
<rect width="45.212" height="44.8774" fill="white" transform="translate(0.431641 -0.000183105)"/>
</clipPath>
</defs>
</svg>
