<svg width="54" height="53" viewBox="0 0 54 53" fill="none" xmlns="http://www.w3.org/2000/svg">
<path d="M34.3402 32.891L38.5708 18.9058L24.1645 16.4679C24.0204 16.4232 23.8639 16.4095 23.7058 16.4279C23.5478 16.4462 23.3917 16.4962 23.2483 16.5743C23.1049 16.6525 22.9774 16.757 22.8745 16.8808C22.7716 17.0046 22.6957 17.1449 22.6519 17.292C22.6081 17.4391 22.5975 17.5898 22.6207 17.7337C22.6439 17.8776 22.7005 18.0114 22.7865 18.1261C22.8726 18.2408 22.9861 18.3337 23.1194 18.3985C23.2528 18.4633 23.4028 18.4984 23.5593 18.5016L34.3497 20.3448L15.8001 31.8381C15.5429 31.9974 15.3518 32.2398 15.2687 32.5119C15.1856 32.784 15.2174 33.0635 15.3571 33.2889C15.4968 33.5144 15.7329 33.6673 16.0136 33.714C16.2942 33.7608 16.5963 33.6975 16.8535 33.5382L35.4031 22.0449L32.2498 32.5275C32.1676 32.8 32.2005 33.0794 32.3412 33.3044C32.4819 33.5294 32.7188 33.6816 32.9999 33.7274C33.2809 33.7732 33.5831 33.7089 33.8399 33.5487C34.0968 33.3884 34.2872 33.1454 34.3693 32.873L34.3402 32.891Z" fill="#F8EFFF"/>
</svg>
