<svg width="53" height="378" viewBox="0 0 53 378" fill="none" xmlns="http://www.w3.org/2000/svg">
<mask id="path-1-outside-1_69_2461" maskUnits="userSpaceOnUse" x="-1" y="-1" width="55" height="380" fill="black">
<rect fill="white" x="-1" y="-1" width="55" height="380"/>
<path d="M1 0.0460426L52.1599 0.0460426V33.3199H44.391V9.31378H30.5019V31.5963H22.733V9.31378H8.76891V33.5198H1V0.0460426ZM1 42.775L52.1599 42.775V52.0428L8.76891 52.0428L8.76891 74.5751H1V42.775ZM1 82.6188H52.1599V115.893H44.391V91.8865H30.5019V114.169H22.733V91.8865H8.76891V116.093H1L1 82.6188ZM52.1599 132.192L11.8915 145.507V146.032L52.1599 159.321V169.513L1 151.477V140.036L52.1599 122.025V132.192ZM1 176.845V166.953L52.1599 184.964V196.405L1 214.44V204.548L41.6681 190.884V190.484L1 176.845ZM21.0593 177.17V204.148H13.6151V177.17H21.0593ZM44.391 212.748H52.1599V253.566H44.391V237.753H1V228.561H44.391V212.748ZM52.1599 270.703H1V261.435H52.1599V270.703ZM52.1599 322.78H1V314.537L35.8477 290.431V290.006H1V280.738H52.1599V289.032L17.2872 313.113V313.563H52.1599L52.1599 322.78ZM35.8227 367.152C37.1716 366.736 38.379 366.161 39.4448 365.428C40.5273 364.712 41.4516 363.846 42.2177 362.83C42.9837 361.831 43.5583 360.682 43.9413 359.383C44.341 358.084 44.5409 356.668 44.5409 355.136C44.5409 352.388 43.8497 349.94 42.4675 347.792C41.0852 345.644 39.0535 343.953 36.3723 342.721C33.7077 341.505 30.4602 340.897 26.6299 340.897C22.7663 340.897 19.4938 341.505 16.8126 342.721C14.1314 343.937 12.0913 345.627 10.6924 347.792C9.31015 349.957 8.61903 352.472 8.61903 355.336C8.61903 357.934 9.11863 360.182 10.1178 362.081C11.1171 363.996 12.5326 365.47 14.3645 366.502C16.2131 367.535 18.378 368.051 20.8594 368.051L20.5347 370.15V356.26H27.779V377.019H21.6338C17.2539 377.019 13.4652 376.087 10.2677 374.221C7.07024 372.356 4.60551 369.791 2.87353 366.527C1.15821 363.263 0.300549 359.516 0.300549 355.286C0.300549 350.573 1.35805 346.435 3.47306 342.871C5.60472 339.324 8.62735 336.551 12.5409 334.552C16.4712 332.571 21.1342 331.58 26.53 331.58C30.6601 331.58 34.3488 332.163 37.5963 333.328C40.8438 334.511 43.5999 336.16 45.8648 338.275C48.1464 340.39 49.8783 342.871 51.0607 345.719C52.2598 348.566 52.8593 351.664 52.8593 355.011C52.8593 357.843 52.443 360.482 51.6103 362.93C50.7943 365.378 49.6285 367.552 48.1131 369.45C46.5976 371.365 44.799 372.939 42.7173 374.171C40.6356 375.404 38.3374 376.211 35.8227 376.594V367.152Z"/>
</mask>
<path d="M1 0.0460424V-0.953958H0V0.0460424H1ZM52.1599 0.0460424H53.1599V-0.953958H52.1599V0.0460424ZM52.1599 33.3199V34.3199H53.1599V33.3199H52.1599ZM44.391 33.3199H43.391V34.3199H44.391V33.3199ZM44.391 9.31378H45.391V8.31378H44.391V9.31378ZM30.5019 9.31378V8.31378H29.5019V9.31378H30.5019ZM30.5019 31.5963V32.5963H31.5019V31.5963H30.5019ZM22.733 31.5963H21.733V32.5963H22.733V31.5963ZM22.733 9.31378H23.733V8.31378H22.733V9.31378ZM8.76891 9.31378V8.31378H7.76891V9.31378H8.76891ZM8.76891 33.5198V34.5198H9.76891V33.5198H8.76891ZM1 33.5198H0V34.5198H1V33.5198ZM1 1.04604L52.1599 1.04604V-0.953958L1 -0.953958V1.04604ZM51.1599 0.0460424V33.3199H53.1599V0.0460424H51.1599ZM52.1599 32.3199H44.391V34.3199H52.1599V32.3199ZM45.391 33.3199V9.31378H43.391V33.3199H45.391ZM44.391 8.31378H30.5019V10.3138H44.391V8.31378ZM29.5019 9.31378V31.5963H31.5019V9.31378H29.5019ZM30.5019 30.5963H22.733V32.5963H30.5019V30.5963ZM23.733 31.5963V9.31378H21.733V31.5963H23.733ZM22.733 8.31378H8.76891V10.3138H22.733V8.31378ZM7.76891 9.31378V33.5198H9.76891V9.31378H7.76891ZM8.76891 32.5198H1V34.5198H8.76891V32.5198ZM2 33.5198V0.0460424H0V33.5198H2ZM1 42.775V41.775H0V42.775H1ZM52.1599 42.775H53.1599V41.775H52.1599V42.775ZM52.1599 52.0428V53.0428H53.1599V52.0428H52.1599ZM8.76891 52.0428V51.0428H7.76891V52.0428H8.76891ZM8.76891 74.5751V75.5751H9.76891V74.5751H8.76891ZM1 74.5751H0V75.5751H1V74.5751ZM1 43.775L52.1599 43.775V41.775L1 41.775V43.775ZM51.1599 42.775V52.0428H53.1599V42.775H51.1599ZM52.1599 51.0428L8.76891 51.0428L8.76891 53.0428L52.1599 53.0428V51.0428ZM7.76891 52.0428L7.76891 74.5751H9.76891L9.76891 52.0428H7.76891ZM8.76891 73.5751H1V75.5751H8.76891V73.5751ZM2 74.5751V42.775H0V74.5751H2ZM1 82.6188V81.6188H0V82.6188H1ZM52.1599 82.6188H53.1599V81.6188H52.1599L52.1599 82.6188ZM52.1599 115.893V116.893H53.1599V115.893H52.1599ZM44.391 115.893H43.391V116.893H44.391V115.893ZM44.391 91.8865H45.391V90.8865H44.391V91.8865ZM30.5019 91.8865V90.8865H29.5019V91.8865H30.5019ZM30.5019 114.169V115.169H31.5019V114.169H30.5019ZM22.733 114.169H21.733V115.169H22.733V114.169ZM22.733 91.8865H23.733V90.8865H22.733V91.8865ZM8.76891 91.8865V90.8865H7.76891V91.8865H8.76891ZM8.76891 116.093V117.093H9.76891V116.093H8.76891ZM1 116.093H0V117.093H1V116.093ZM1 83.6188H52.1599L52.1599 81.6188H1V83.6188ZM51.1599 82.6188V115.893H53.1599V82.6188H51.1599ZM52.1599 114.893H44.391V116.893H52.1599V114.893ZM45.391 115.893V91.8865H43.391V115.893H45.391ZM44.391 90.8865H30.5019V92.8865H44.391V90.8865ZM29.5019 91.8865V114.169H31.5019V91.8865H29.5019ZM30.5019 113.169H22.733V115.169H30.5019V113.169ZM23.733 114.169V91.8865H21.733V114.169H23.733ZM22.733 90.8865H8.76891V92.8865H22.733V90.8865ZM7.76891 91.8865V116.093H9.76891V91.8865H7.76891ZM8.76891 115.093H1V117.093H8.76891V115.093ZM2 116.093L2 82.6188H0L0 116.093H2ZM52.1599 132.192L52.4738 133.142L53.1599 132.915V132.192H52.1599ZM11.8915 145.507L11.5775 144.558L10.8915 144.784V145.507H11.8915ZM11.8915 146.032H10.8915V146.755L11.5781 146.981L11.8915 146.032ZM52.1599 159.321H53.1599V158.598L52.4733 158.372L52.1599 159.321ZM52.1599 169.513L51.8274 170.456L53.1599 170.926V169.513H52.1599ZM1 151.477H0V152.185L0.667519 152.42L1 151.477ZM1 140.036L0.667931 139.093L0 139.328V140.036H1ZM52.1599 122.025H53.1599V120.613L51.8278 121.082L52.1599 122.025ZM51.846 131.243L11.5775 144.558L12.2054 146.456L52.4738 133.142L51.846 131.243ZM10.8915 145.507V146.032H12.8915V145.507H10.8915ZM11.5781 146.981L51.8465 160.271L52.4733 158.372L12.2049 145.082L11.5781 146.981ZM51.1599 159.321V169.513H53.1599V159.321H51.1599ZM52.4924 168.57L1.33248 150.534L0.667519 152.42L51.8274 170.456L52.4924 168.57ZM2 151.477V140.036H0V151.477H2ZM1.33207 140.98L52.492 122.969L51.8278 121.082L0.667931 139.093L1.33207 140.98ZM51.1599 122.025V132.192H53.1599V122.025H51.1599ZM1 176.845H0V177.564L0.682022 177.793L1 176.845ZM1 166.953L1.33207 166.009L0 165.54V166.953H1ZM52.1599 184.964H53.1599V184.255L52.492 184.02L52.1599 184.964ZM52.1599 196.405L52.4924 197.348L53.1599 197.112V196.405H52.1599ZM1 214.44H0V215.853L1.33248 215.384L1 214.44ZM1 204.548L0.681503 203.6L0 203.829V204.548H1ZM41.6681 190.884L41.9866 191.832L42.6681 191.603V190.884H41.6681ZM41.6681 190.484H42.6681V189.765L41.9861 189.536L41.6681 190.484ZM21.0593 177.17H22.0593V176.17H21.0593V177.17ZM21.0593 204.148V205.148H22.0593V204.148H21.0593ZM13.6151 204.148H12.6151V205.148H13.6151V204.148ZM13.6151 177.17V176.17H12.6151V177.17H13.6151ZM2 176.845V166.953H0V176.845H2ZM0.667931 167.896L51.8278 185.907L52.492 184.02L1.33207 166.009L0.667931 167.896ZM51.1599 184.964V196.405H53.1599V184.964H51.1599ZM51.8274 195.461L0.667519 213.497L1.33248 215.384L52.4924 197.348L51.8274 195.461ZM2 214.44V204.548H0V214.44H2ZM1.3185 205.496L41.9866 191.832L41.3496 189.936L0.681503 203.6L1.3185 205.496ZM42.6681 190.884V190.484H40.6681V190.884H42.6681ZM41.9861 189.536L1.31798 175.897L0.682022 177.793L41.3501 191.432L41.9861 189.536ZM20.0593 177.17V204.148H22.0593V177.17H20.0593ZM21.0593 203.148H13.6151V205.148H21.0593V203.148ZM14.6151 204.148V177.17H12.6151V204.148H14.6151ZM13.6151 178.17H21.0593V176.17H13.6151V178.17ZM44.391 212.748V211.748H43.391V212.748H44.391ZM52.1599 212.748H53.1599V211.748H52.1599V212.748ZM52.1599 253.566V254.566H53.1599V253.566H52.1599ZM44.391 253.566H43.391V254.566H44.391V253.566ZM44.391 237.753H45.391V236.753H44.391V237.753ZM1 237.753H0V238.753H1V237.753ZM1 228.561V227.561H0V228.561H1ZM44.391 228.561V229.561H45.391V228.561H44.391ZM44.391 213.748H52.1599V211.748H44.391V213.748ZM51.1599 212.748V253.566H53.1599V212.748H51.1599ZM52.1599 252.566H44.391V254.566H52.1599V252.566ZM45.391 253.566V237.753H43.391V253.566H45.391ZM44.391 236.753H1V238.753H44.391V236.753ZM2 237.753V228.561H0V237.753H2ZM1 229.561H44.391V227.561H1V229.561ZM45.391 228.561V212.748H43.391V228.561H45.391ZM52.1599 270.703V271.703H53.1599V270.703H52.1599ZM1 270.703H0V271.703H1V270.703ZM1 261.435V260.435H0V261.435H1ZM52.1599 261.435H53.1599V260.435H52.1599V261.435ZM52.1599 269.703H1V271.703H52.1599V269.703ZM2 270.703V261.435H0V270.703H2ZM1 262.435H52.1599V260.435H1V262.435ZM51.1599 261.435V270.703H53.1599V261.435H51.1599ZM52.1599 322.78V323.78H53.1599V322.78H52.1599ZM1 322.78H0V323.78H1V322.78ZM1 314.537L0.431099 313.715L0 314.013V314.537H1ZM35.8477 290.431L36.4166 291.253L36.8477 290.955V290.431H35.8477ZM35.8477 290.006H36.8477V289.006H35.8477V290.006ZM1 290.006H0V291.006H1V290.006ZM1 280.738V279.738H0V280.738H1ZM52.1599 280.738H53.1599V279.738H52.1599V280.738ZM52.1599 289.032L52.7281 289.855L53.1599 289.557V289.032H52.1599ZM17.2872 313.113L16.719 312.29L16.2872 312.588V313.113H17.2872ZM17.2872 313.563H16.2872V314.563H17.2872V313.563ZM52.1599 313.563H53.1599V312.563H52.1599V313.563ZM52.1599 321.78H1V323.78H52.1599V321.78ZM2 322.78V314.537H0V322.78H2ZM1.5689 315.359L36.4166 291.253L35.2788 289.608L0.431099 313.715L1.5689 315.359ZM36.8477 290.431V290.006H34.8477V290.431H36.8477ZM35.8477 289.006H1V291.006H35.8477V289.006ZM2 290.006V280.738H0V290.006H2ZM1 281.738H52.1599V279.738H1V281.738ZM51.1599 280.738V289.032H53.1599V280.738H51.1599ZM51.5917 288.209L16.719 312.29L17.8555 313.936L52.7281 289.855L51.5917 288.209ZM16.2872 313.113V313.563H18.2872V313.113H16.2872ZM17.2872 314.563H52.1599L52.1599 312.563H17.2872V314.563ZM51.1599 313.563L51.1599 322.78H53.1599V313.563H51.1599ZM35.8227 367.152L35.5278 366.196L34.8227 366.414V367.152H35.8227ZM39.4448 365.428L38.8931 364.594L38.8857 364.599L38.8783 364.604L39.4448 365.428ZM42.2177 362.83L41.424 362.222L41.4192 362.228L42.2177 362.83ZM43.9413 359.383L42.9855 359.089L42.9822 359.1L43.9413 359.383ZM42.4675 347.792L41.6265 348.333L42.4675 347.792ZM36.3723 342.721L36.7899 341.812L36.7873 341.811L36.3723 342.721ZM16.8126 342.721L16.3997 341.81L16.8126 342.721ZM10.6924 347.792L9.85247 347.249L9.84954 347.254L10.6924 347.792ZM10.1179 362.081L11.0044 361.618L11.0028 361.615L10.1179 362.081ZM14.3645 366.502L13.8735 367.374L13.8769 367.375L14.3645 366.502ZM20.8594 368.051L21.8477 368.204L22.0261 367.051H20.8594V368.051ZM20.5347 370.15H19.5347L21.5229 370.302L20.5347 370.15ZM20.5347 356.26V355.26H19.5347V356.26H20.5347ZM27.779 356.26H28.779V355.26H27.779V356.26ZM27.779 377.019V378.019H28.779V377.019H27.779ZM10.2677 374.221L9.76386 375.085H9.76386L10.2677 374.221ZM2.87353 366.527L1.98831 366.993L1.99018 366.996L2.87353 366.527ZM3.47306 342.871L2.61591 342.356L2.6131 342.361L3.47306 342.871ZM12.541 334.552L12.0907 333.66L12.0862 333.662L12.541 334.552ZM37.5963 333.328L37.9384 332.389L37.9342 332.387L37.5963 333.328ZM45.8648 338.275L45.1823 339.005L45.185 339.008L45.8648 338.275ZM51.0607 345.719L50.1372 346.102L50.1391 346.107L51.0607 345.719ZM51.6103 362.93L50.6636 362.608L50.6616 362.614L51.6103 362.93ZM48.1131 369.45L47.3315 368.826L47.3289 368.83L48.1131 369.45ZM42.7173 374.171L43.2267 375.032L42.7173 374.171ZM35.8227 376.594H34.8227V377.758L35.9733 377.583L35.8227 376.594ZM36.1176 368.107C37.5544 367.664 38.8549 367.047 40.0114 366.252L38.8783 364.604C37.9031 365.275 36.7888 365.807 35.5278 366.196L36.1176 368.107ZM39.9966 366.262C41.1719 365.485 42.1802 364.541 43.0161 363.432L41.4192 362.228C40.723 363.151 39.8827 363.94 38.8931 364.594L39.9966 366.262ZM43.0113 363.439C43.8575 362.335 44.4854 361.074 44.9005 359.666L42.9822 359.1C42.6312 360.29 42.1099 361.327 41.4241 362.222L43.0113 363.439ZM44.8971 359.677C45.3296 358.272 45.5409 356.756 45.5409 355.136H43.5409C43.5409 356.581 43.3525 357.896 42.9855 359.089L44.8971 359.677ZM45.5409 355.136C45.5409 352.212 44.8024 349.573 43.3084 347.251L41.6265 348.333C42.897 350.308 43.5409 352.565 43.5409 355.136H45.5409ZM43.3084 347.251C41.8078 344.919 39.6169 343.112 36.7899 341.812L35.9546 343.63C38.4901 344.795 40.3627 346.369 41.6265 348.333L43.3084 347.251ZM36.7873 341.811C33.9589 340.521 30.5613 339.897 26.6299 339.897V341.897C30.3592 341.897 33.4565 342.49 35.9572 343.631L36.7873 341.811ZM26.6299 339.897C22.6663 339.897 19.2444 340.52 16.3997 341.81L17.2256 343.632C19.7432 342.49 22.8662 341.897 26.6299 341.897V339.897ZM16.3997 341.81C13.5692 343.094 11.3697 344.901 9.85248 347.249L11.5323 348.335C12.8129 346.353 14.6935 344.78 17.2256 343.632L16.3997 341.81ZM9.84954 347.254C8.35312 349.598 7.61903 352.304 7.61903 355.336H9.61903C9.61903 352.64 10.2672 350.316 11.5353 348.33L9.84954 347.254ZM7.61903 355.336C7.61903 358.062 8.14378 360.477 9.23293 362.547L11.0028 361.615C10.0935 359.888 9.61903 357.806 9.61903 355.336H7.61903ZM9.23127 362.543C10.3174 364.625 11.8682 366.243 13.8735 367.374L14.8555 365.631C13.1971 364.696 11.9167 363.367 11.0044 361.618L9.23127 362.543ZM13.8769 367.375C15.8983 368.505 18.2368 369.051 20.8594 369.051V367.051C18.5192 367.051 16.5279 366.565 14.8522 365.629L13.8769 367.375ZM19.8712 367.898L19.5464 369.997L21.5229 370.302L21.8477 368.204L19.8712 367.898ZM21.5347 370.15V356.26H19.5347V370.15H21.5347ZM20.5347 357.26H27.779V355.26H20.5347V357.26ZM26.779 356.26V377.019H28.779V356.26H26.779ZM27.779 376.019H21.6338V378.019H27.779V376.019ZM21.6338 376.019C17.3983 376.019 13.7902 375.118 10.7716 373.358L9.76386 375.085C13.1402 377.055 17.1095 378.019 21.6338 378.019V376.019ZM10.7716 373.358C7.7346 371.586 5.40144 369.158 3.75688 366.059L1.99018 366.996C3.80958 370.425 6.40587 373.126 9.76386 375.085L10.7716 373.358ZM3.75874 366.062C2.12925 362.961 1.30054 359.378 1.30054 355.286H-0.699455C-0.699455 359.654 0.187172 363.565 1.98832 366.993L3.75874 366.062ZM1.30054 355.286C1.30054 350.728 2.32171 346.77 4.33302 343.381L2.6131 342.361C0.394394 346.099 -0.699455 350.419 -0.699455 355.286H1.30054ZM4.3302 343.386C6.35946 340.009 9.23797 337.362 12.9957 335.443L12.0862 333.662C8.01673 335.74 4.84998 338.638 2.61592 342.356L4.3302 343.386ZM12.9912 335.445C16.7538 333.548 21.2559 332.58 26.53 332.58V330.58C21.0126 330.58 16.1886 331.593 12.0907 333.66L12.9912 335.445ZM26.53 332.58C30.567 332.58 34.1384 333.15 37.2584 334.27L37.9342 332.387C34.5593 331.176 30.7532 330.58 26.53 330.58V332.58ZM37.2542 334.268C40.3899 335.41 43.0264 336.992 45.1823 339.005L46.5473 337.544C44.1734 335.327 41.2976 333.612 37.9384 332.389L37.2542 334.268ZM45.185 339.008C47.362 341.026 49.0104 343.388 50.1372 346.102L51.9843 345.335C50.7462 342.353 48.9307 339.753 46.5447 337.541L45.185 339.008ZM50.1391 346.107C51.2823 348.822 51.8593 351.786 51.8593 355.011H53.8593C53.8593 351.542 53.2373 348.311 51.9824 345.331L50.1391 346.107ZM51.8593 355.011C51.8593 357.743 51.4578 360.273 50.6636 362.608L52.557 363.252C53.4282 360.691 53.8593 357.942 53.8593 355.011H51.8593ZM50.6616 362.614C49.8805 364.957 48.7692 367.025 47.3315 368.826L48.8946 370.074C50.4879 368.078 51.7081 365.799 52.559 363.246L50.6616 362.614ZM47.3289 368.83C45.8887 370.65 44.183 372.142 42.2079 373.311L43.2267 375.032C45.415 373.736 47.3064 372.081 48.8972 370.071L47.3289 368.83ZM42.2079 373.311C40.2421 374.475 38.0667 375.241 35.6721 375.606L35.9733 377.583C38.6081 377.182 41.0291 376.333 43.2267 375.032L42.2079 373.311ZM36.8227 376.594V367.152H34.8227V376.594H36.8227Z" fill="white" mask="url(#path-1-outside-1_69_2461)"/>
</svg>
