<svg width="58" height="58" viewBox="0 0 58 58" fill="none" xmlns="http://www.w3.org/2000/svg">
<g clip-path="url(#clip0_179_1441)">
<path d="M14.7469 15.656L9.72392 16.044C9.0387 16.0949 8.37436 16.3026 7.78222 16.6511C7.19007 16.9996 6.68599 17.4796 6.30891 18.054L0.515915 26.815C0.227657 27.2489 0.0533919 27.7485 0.00921505 28.2675C-0.0349618 28.7866 0.0523745 29.3084 0.263157 29.7847C0.473939 30.2611 0.801371 30.6767 1.21521 30.9931C1.62904 31.3095 2.11594 31.5165 2.63091 31.595L7.23091 32.307C8.45804 26.264 11.0266 20.5736 14.7469 15.656Z" fill="#6710F7"/>
<path d="M25.668 50.745L26.38 55.345C26.4585 55.86 26.6655 56.3469 26.9819 56.7607C27.2983 57.1745 27.7138 57.502 28.1902 57.7127C28.6666 57.9235 29.1884 58.0109 29.7075 57.9667C30.2265 57.9225 30.7261 57.7482 31.16 57.46L39.921 51.667C40.4952 51.2898 40.975 50.7857 41.3233 50.1935C41.6716 49.6014 41.8792 48.9371 41.93 48.252L42.318 43.229C37.4007 46.9493 31.7107 49.5178 25.668 50.745Z" fill="#6710F7"/>
<path d="M23.9368 47.557C24.0976 47.557 24.2581 47.5436 24.4168 47.517C26.7805 47.1155 29.0939 46.4597 31.3168 45.561L12.4128 26.66C11.5141 28.8828 10.8583 31.1963 10.4568 33.56C10.3807 34.0253 10.4168 34.5021 10.562 34.9506C10.7073 35.3992 10.9574 35.8066 11.2918 36.139L21.8388 46.686C22.3954 47.2424 23.1498 47.5556 23.9368 47.557Z" fill="#6710F7"/>
<path d="M53.352 25.7C57.977 16.758 58.152 7.30798 57.907 2.87598C57.8664 2.14377 57.5571 1.45228 57.0381 0.934103C56.5192 0.415922 55.8273 0.107506 55.095 0.0679838C54.373 0.0279838 53.518 -1.62178e-05 52.554 -1.62178e-05C45.5239 -0.0693275 38.5758 1.51423 32.27 4.62298C24.4653 8.96729 18.0894 15.4836 13.916 23.381C13.9715 23.4237 14.0242 23.4698 14.074 23.519L34.456 43.9C34.5048 43.9495 34.5506 44.0019 34.593 44.057C42.4912 39.8829 49.0079 33.5059 53.352 25.7ZM33.704 12.256C35.0934 10.8669 36.9214 10.0026 38.8766 9.81028C40.8318 9.61794 42.7933 10.1095 44.4267 11.2012C46.0601 12.2928 47.2645 13.9171 47.8346 15.7972C48.4047 17.6773 48.3053 19.6969 47.5533 21.512C46.8013 23.327 45.4432 24.8251 43.7105 25.7511C41.9777 26.6771 39.9775 26.9736 38.0507 26.5902C36.1238 26.2068 34.3895 25.1671 33.1432 23.6483C31.897 22.1295 31.2159 20.2256 31.216 18.261C31.217 16.0087 32.1119 13.849 33.704 12.256Z" fill="#6710F7"/>
<path d="M36.1111 21.8639C36.9453 22.6989 38.0432 23.2187 39.2177 23.3347C40.3921 23.4508 41.5705 23.1559 42.5519 22.5003C43.5333 21.8448 44.257 20.8692 44.5996 19.7398C44.9421 18.6104 44.8824 17.3971 44.4305 16.3068C43.9787 15.2165 43.1627 14.3167 42.1216 13.7607C41.0806 13.2048 39.8789 13.0271 38.7215 13.258C37.5641 13.4888 36.5226 14.114 35.7745 15.0268C35.0264 15.9397 34.6181 17.0837 34.6191 18.2639C34.6203 19.6141 35.1569 20.9087 36.1111 21.8639Z" fill="#6710F7"/>
<path d="M1.72905 47.777C1.95216 47.7769 2.17304 47.7327 2.37899 47.6469C2.58493 47.561 2.77187 47.4354 2.92905 47.277L8.47405 41.732C8.76206 41.4079 8.91536 40.986 8.9026 40.5527C8.88985 40.1193 8.71199 39.7072 8.40542 39.4006C8.09885 39.0941 7.68673 38.9162 7.25336 38.9034C6.81999 38.8907 6.39812 39.044 6.07405 39.332L0.52905 44.877C0.292137 45.1147 0.130895 45.4173 0.0656426 45.7465C0.000390511 46.0757 0.0340486 46.4169 0.162375 46.727C0.290702 47.0371 0.507955 47.3023 0.786755 47.4892C1.06555 47.676 1.39343 47.7762 1.72905 47.777Z" fill="#6710F7"/>
<path d="M13.5605 44.414C13.2419 44.0964 12.8103 43.9182 12.3605 43.9182C11.9106 43.9182 11.4791 44.0964 11.1605 44.414L0.496492 55.071C0.323325 55.2249 0.183439 55.4126 0.0854246 55.6225C-0.0125901 55.8324 -0.0666659 56.0601 -0.0734826 56.2917C-0.0802994 56.5233 -0.0397133 56.7538 0.0457839 56.9691C0.131281 57.1844 0.259885 57.3799 0.4237 57.5438C0.587515 57.7076 0.783084 57.8362 0.998399 57.9217C1.21372 58.0072 1.44423 58.0478 1.6758 58.041C1.90737 58.0341 2.1351 57.9801 2.34502 57.882C2.55493 57.784 2.7426 57.6441 2.89649 57.471L13.5575 46.81C13.875 46.4914 14.0533 46.0598 14.0533 45.61C14.0533 45.1601 13.875 44.7286 13.5575 44.41L13.5605 44.414Z" fill="#6710F7"/>
<path d="M16.2407 49.496L10.6957 55.041C10.5225 55.1949 10.3827 55.3826 10.2846 55.5925C10.1866 55.8024 10.1326 56.0301 10.1257 56.2617C10.1189 56.4933 10.1595 56.7238 10.245 56.9391C10.3305 57.1544 10.4591 57.35 10.6229 57.5138C10.7867 57.6776 10.9823 57.8062 11.1976 57.8917C11.4129 57.9772 11.6435 58.0178 11.875 58.011C12.1066 58.0042 12.3343 57.9501 12.5442 57.8521C12.7542 57.7541 12.9418 57.6142 13.0957 57.441L18.6407 51.896C18.9287 51.5719 19.082 51.1501 19.0693 50.7167C19.0565 50.2833 18.8786 49.8712 18.5721 49.5646C18.2655 49.2581 17.8534 49.0802 17.42 49.0674C16.9866 49.0547 16.5648 49.208 16.2407 49.496Z" fill="#6710F7"/>
</g>
<defs>
<clipPath id="clip0_179_1441">
<rect width="57.976" height="57.976" fill="white"/>
</clipPath>
</defs>
</svg>
