<svg width="58" height="58" viewBox="0 0 58 58" fill="none" xmlns="http://www.w3.org/2000/svg">
<g clip-path="url(#clip0_179_54)">
<path d="M52.5835 12.5997H41.5422V10.3998C41.541 9.23375 41.0757 8.11574 40.2483 7.29096C39.4209 6.46617 38.2989 6.00191 37.1284 6H23.877C22.7061 6.0012 21.5834 6.46513 20.7554 7.29C19.9274 8.11487 19.4617 9.23328 19.4605 10.3998V12.5997H8.41652C7.24539 12.6009 6.1226 13.065 5.29457 13.89C4.46655 14.7151 4.00096 15.8338 4 17.0005V23.6011C4.00072 24.7679 4.4662 25.8868 5.29425 26.7121C6.1223 27.5373 7.24524 28.0015 8.41652 28.0027H26.0835V26.8996C26.0834 26.7551 26.1119 26.6119 26.1673 26.4783C26.2228 26.3448 26.3041 26.2234 26.4067 26.1212C26.5093 26.019 26.6312 25.938 26.7652 25.8827C26.8993 25.8275 27.043 25.7991 27.1881 25.7992H33.8137C33.9588 25.7991 34.1025 25.8275 34.2366 25.8827C34.3707 25.938 34.4925 26.019 34.5951 26.1212C34.6977 26.2234 34.779 26.3448 34.8345 26.4783C34.89 26.6119 34.9184 26.7551 34.9183 26.8996V28.0027H52.5835C53.7544 28.0015 54.8771 27.5376 55.7051 26.7127C56.5331 25.8878 56.9988 24.7694 57 23.6029V17.0023C56.9995 15.8353 56.5341 14.7161 55.7061 13.8907C54.878 13.0652 53.7549 12.6009 52.5835 12.5997ZM37.1248 12.5997H23.877V10.3998H37.1284L37.1248 12.5997Z" fill="#6710F7"/>
<path d="M56.3874 29.1872C56.2033 29.0963 55.9974 29.0583 55.7928 29.0774C55.5882 29.0966 55.3931 29.1722 55.2292 29.2957C54.471 29.8786 53.5412 30.1964 52.5835 30.1999H34.9165V33.5002C34.9166 33.6448 34.8881 33.7879 34.8327 33.9215C34.7772 34.055 34.6958 34.1764 34.5933 34.2786C34.4907 34.3808 34.3688 34.4618 34.2348 34.5171C34.1007 34.5724 33.957 34.6007 33.8119 34.6006H27.1863C27.0412 34.6007 26.8975 34.5724 26.7634 34.5171C26.6293 34.4618 26.5075 34.3808 26.4049 34.2786C26.3023 34.1764 26.221 34.055 26.1655 33.9215C26.11 33.7879 26.0815 33.6448 26.0817 33.5002V30.1999H8.41652C7.45882 30.1964 6.52896 29.8786 5.77078 29.2957C5.60712 29.172 5.41206 29.0963 5.20754 29.077C5.00302 29.0578 4.79716 29.0957 4.61314 29.1867C4.42911 29.2777 4.27422 29.418 4.1659 29.5919C4.05758 29.7658 4.00012 29.9663 4 30.171V45.5993C4.0012 46.7658 4.4669 47.8842 5.29489 48.7091C6.12289 49.534 7.24555 49.9979 8.41652 49.9991H52.5835C53.7544 49.9979 54.8771 49.534 55.7051 48.7091C56.5331 47.8842 56.9988 46.7658 57 45.5993V30.171C56.9997 29.9665 56.9422 29.7661 56.834 29.5923C56.7258 29.4186 56.5711 29.2783 56.3874 29.1872Z" fill="#6710F7"/>
</g>
<defs>
<clipPath id="clip0_179_54">
<rect width="53" height="44" fill="white" transform="translate(4 6)"/>
</clipPath>
</defs>
</svg>
